# Blender 4.4.1
# www.blender.org
mtllib conv_belt.mtl
o Plane.002
v 4.544730 -0.381779 -1.000000
v 4.544730 -0.381779 1.000000
v -4.334441 -0.381779 -1.000000
v -4.334441 -0.381779 1.000000
v -4.435390 -0.384396 -1.000000
v -4.435390 -0.384396 1.000000
v -4.533577 -0.360796 -1.000000
v -4.533577 -0.360796 1.000000
v -4.622311 -0.312588 -1.000000
v -4.622311 -0.312588 1.000000
v -4.695544 -0.243057 -1.000000
v -4.695544 -0.243057 1.000000
v -4.748285 -0.156940 -1.000000
v -4.748285 -0.156940 1.000000
v -4.776941 -0.060108 -1.000000
v -4.776941 -0.060108 1.000000
v -4.779558 0.040842 -1.000000
v -4.779558 0.040842 1.000000
v -4.755959 0.139029 -1.000000
v -4.755959 0.139029 1.000000
v -4.707750 0.227762 -1.000000
v -4.707750 0.227762 1.000000
v -4.638218 0.300995 -1.000000
v -4.638218 0.300995 1.000000
v -4.552102 0.353736 -1.000000
v -4.552102 0.353736 1.000000
v -4.455269 0.382392 -1.000000
v -4.455269 0.382392 1.000000
v -4.439586 0.382085 1.000000
v 4.439586 0.382085 1.000000
v -4.439586 0.382085 -1.000000
v 4.439586 0.382085 -1.000000
v 4.540535 0.384702 1.000000
v 4.540535 0.384702 -1.000000
v 4.638722 0.361102 1.000000
v 4.638722 0.361102 -1.000000
v 4.727456 0.312894 1.000000
v 4.727456 0.312894 -1.000000
v 4.800689 0.243363 1.000000
v 4.800689 0.243363 -1.000000
v 4.853430 0.157246 1.000000
v 4.853430 0.157246 -1.000000
v 4.882086 0.060414 1.000000
v 4.882086 0.060414 -1.000000
v 4.884703 -0.040536 1.000000
v 4.884703 -0.040536 -1.000000
v 4.861103 -0.138723 1.000000
v 4.861103 -0.138723 -1.000000
v 4.812894 -0.227457 1.000000
v 4.812894 -0.227457 -1.000000
v 4.743363 -0.300689 1.000000
v 4.743363 -0.300689 -1.000000
v 4.657246 -0.353431 1.000000
v 4.657246 -0.353431 -1.000000
v 4.560414 -0.382086 1.000000
v 4.560414 -0.382086 -1.000000
vn -0.0000 -1.0000 -0.0000
vn 0.0259 -0.9997 -0.0000
vn -0.2337 -0.9723 -0.0000
vn -0.4774 -0.8787 -0.0000
vn -0.6885 -0.7252 -0.0000
vn -0.8528 -0.5223 -0.0000
vn -0.9589 -0.2838 -0.0000
vn -0.9997 -0.0259 -0.0000
vn -0.9723 0.2337 -0.0000
vn -0.8787 0.4774 -0.0000
vn -0.7252 0.6885 -0.0000
vn -0.5223 0.8528 -0.0000
vn -0.2838 0.9589 -0.0000
vn -0.0000 1.0000 -0.0000
vn -0.0259 0.9997 -0.0000
vn 0.2337 0.9723 -0.0000
vn 0.4774 0.8787 -0.0000
vn 0.6885 0.7252 -0.0000
vn 0.8528 0.5223 -0.0000
vn 0.9589 0.2838 -0.0000
vn 0.9997 0.0259 -0.0000
vn 0.9723 -0.2337 -0.0000
vn 0.8787 -0.4774 -0.0000
vn 0.7252 -0.6885 -0.0000
vn 0.5223 -0.8528 -0.0000
vn 0.2838 -0.9589 -0.0000
vn -0.0196 -0.9998 -0.0000
vn 0.0196 0.9998 -0.0000
vt 0.110194 0.411146
vt 0.110194 0.588855
vt 0.899149 0.588854
vt 0.899149 0.411145
vt 0.004457 0.589887
vt 0.012216 0.589887
vt 0.012216 0.410113
vt 0.004457 0.410113
vt 0.019975 0.589887
vt 0.019975 0.410113
vt 0.027734 0.589887
vt 0.027734 0.410113
vt 0.035493 0.589887
vt 0.035493 0.410113
vt 0.043252 0.589887
vt 0.043252 0.410113
vt 0.051011 0.589887
vt 0.051011 0.410113
vt 0.058770 0.589887
vt 0.058770 0.410113
vt 0.066529 0.589887
vt 0.066529 0.410113
vt 0.074288 0.589887
vt 0.074288 0.410113
vt 0.082047 0.589887
vt 0.082047 0.410113
vt 0.089806 0.589887
vt 0.089806 0.410113
vt 0.097565 0.589887
vt 0.097565 0.410113
vt 0.100851 0.411145
vt 0.889806 0.411145
vt 0.889806 0.588855
vt 0.100851 0.588855
vt 0.999953 0.412796
vt 0.999953 0.588435
vt 0.991787 0.588435
vt 0.991787 0.412796
vt 0.983622 0.588435
vt 0.983622 0.412796
vt 0.975456 0.588435
vt 0.975456 0.412796
vt 0.967290 0.588435
vt 0.967290 0.412796
vt 0.959124 0.588435
vt 0.959124 0.412796
vt 0.950958 0.588435
vt 0.950958 0.412796
vt 0.942792 0.588435
vt 0.942792 0.412796
vt 0.934626 0.588435
vt 0.934626 0.412796
vt 0.926460 0.588435
vt 0.926460 0.412796
vt 0.918294 0.588435
vt 0.918294 0.412796
vt 0.910128 0.588435
vt 0.910128 0.412796
vt 0.901963 0.588435
vt 0.901963 0.412796
vt 0.899149 0.588855
vt 0.900542 0.588855
vt 0.900542 0.411145
vt 0.899149 0.411145
vt 0.098770 0.589887
vt 0.098770 0.410113
s 0
usemtl Material.007
f 1/1/1 2/2/1 4/3/1 3/4/1
f 4/5/2 6/6/2 5/7/2 3/8/2
f 6/6/3 8/9/3 7/10/3 5/7/3
f 8/9/4 10/11/4 9/12/4 7/10/4
f 10/11/5 12/13/5 11/14/5 9/12/5
f 12/13/6 14/15/6 13/16/6 11/14/6
f 14/15/7 16/17/7 15/18/7 13/16/7
f 16/17/8 18/19/8 17/20/8 15/18/8
f 18/19/9 20/21/9 19/22/9 17/20/9
f 20/21/10 22/23/10 21/24/10 19/22/10
f 22/23/11 24/25/11 23/26/11 21/24/11
f 24/25/12 26/27/12 25/28/12 23/26/12
f 26/27/13 28/29/13 27/30/13 25/28/13
f 29/31/14 30/32/14 32/33/14 31/34/14
f 32/35/15 30/36/15 33/37/15 34/38/15
f 34/38/16 33/37/16 35/39/16 36/40/16
f 36/40/17 35/39/17 37/41/17 38/42/17
f 38/42/18 37/41/18 39/43/18 40/44/18
f 40/44/19 39/43/19 41/45/19 42/46/19
f 42/46/20 41/45/20 43/47/20 44/48/20
f 44/48/21 43/47/21 45/49/21 46/50/21
f 46/50/22 45/49/22 47/51/22 48/52/22
f 48/52/23 47/51/23 49/53/23 50/54/23
f 50/54/24 49/53/24 51/55/24 52/56/24
f 52/56/25 51/55/25 53/57/25 54/58/25
f 54/58/26 53/57/26 55/59/26 56/60/26
f 1/61/27 56/62/27 55/63/27 2/64/27
f 28/29/28 29/65/28 31/66/28 27/30/28
