# Blender 4.4.1
# www.blender.org
mtllib LampBulb.mtl
o Plane
v 0.810247 -1.748348 0.002769
v 1.379952 -2.868768 0.002769
v 1.467307 -3.461261 0.002769
v 1.330578 -3.951208 0.002769
v 1.041927 -4.368992 0.002769
v 0.673518 -4.653844 0.002769
v 0.240542 -4.798169 0.002769
v 0.000000 -4.809565 0.002769
v 0.701695 -1.748348 -0.402355
v 1.195074 -2.868768 -0.687207
v 1.270725 -3.461261 -0.730885
v 1.152314 -3.951208 -0.662520
v 0.902335 -4.368992 -0.518195
v 0.583284 -4.653844 -0.333990
v 0.208315 -4.798169 -0.117502
v 0.405124 -1.748348 -0.698926
v 0.689976 -2.868768 -1.192305
v 0.733653 -3.461261 -1.267956
v 0.665289 -3.951208 -1.149545
v 0.520964 -4.368992 -0.899566
v 0.336759 -4.653844 -0.580515
v 0.120271 -4.798169 -0.205547
v -0.000000 -1.748348 -0.807478
v -0.000000 -2.868768 -1.377183
v -0.000000 -3.461261 -1.464538
v -0.000000 -3.951208 -1.327809
v 0.000000 -4.368992 -1.039158
v -0.000000 -4.653844 -0.670749
v -0.000000 -4.798169 -0.237773
v -0.405124 -1.748348 -0.698925
v -0.689976 -2.868768 -1.192304
v -0.733653 -3.461261 -1.267956
v -0.665289 -3.951208 -1.149545
v -0.520964 -4.368992 -0.899566
v -0.336759 -4.653844 -0.580515
v -0.120271 -4.798169 -0.205547
v -0.701695 -1.748348 -0.402354
v -1.195074 -2.868768 -0.687207
v -1.270725 -3.461261 -0.730884
v -1.152314 -3.951208 -0.662520
v -0.902335 -4.368992 -0.518195
v -0.583284 -4.653844 -0.333990
v -0.208315 -4.798169 -0.117502
v -0.810247 -1.748348 0.002769
v -1.379952 -2.868768 0.002769
v -1.467307 -3.461261 0.002769
v -1.330577 -3.951208 0.002769
v -1.041927 -4.368992 0.002769
v -0.673518 -4.653844 0.002769
v -0.240542 -4.798169 0.002769
v -0.701694 -1.748348 0.407893
v -1.195073 -2.868768 0.692745
v -1.270725 -3.461261 0.736422
v -1.152314 -3.951208 0.668058
v -0.902335 -4.368992 0.523732
v -0.583283 -4.653844 0.339528
v -0.208315 -4.798169 0.123040
v -0.405123 -1.748348 0.704464
v -0.689976 -2.868768 1.197843
v -0.733653 -3.461261 1.273494
v -0.665289 -3.951208 1.155083
v -0.520964 -4.368992 0.905104
v -0.336759 -4.653844 0.586052
v -0.120271 -4.798169 0.211084
v 0.000000 -1.748348 0.813016
v 0.000000 -2.868768 1.382721
v 0.000000 -3.461261 1.470076
v 0.000000 -3.951208 1.333346
v 0.000000 -4.368992 1.044696
v 0.000000 -4.653844 0.676287
v 0.000000 -4.798169 0.243311
v 0.405124 -1.748348 0.704463
v 0.689976 -2.868768 1.197842
v 0.733653 -3.461261 1.273494
v 0.665289 -3.951208 1.155083
v 0.520964 -4.368992 0.905104
v 0.336759 -4.653844 0.586052
v 0.120271 -4.798169 0.211084
v 0.701695 -1.748348 0.407892
v 1.195074 -2.868768 0.692745
v 1.270725 -3.461261 0.736422
v 1.152314 -3.951208 0.668058
v 0.902335 -4.368992 0.523732
v 0.583283 -4.653844 0.339528
v 0.208315 -4.798169 0.123040
v 0.000000 0.175356 0.002769
v 0.227882 0.153201 0.002769
v 0.256367 0.099396 0.002769
v 0.617180 -0.223437 0.002769
v 0.620345 -1.106480 0.002769
v 0.802651 -1.376141 0.002769
v 0.810247 -1.748348 0.002769
v 0.000000 0.175356 0.002769
v 0.197352 0.153201 -0.111172
v 0.222021 0.099396 -0.125415
v 0.534494 -0.223437 -0.305821
v 0.537235 -1.106480 -0.307404
v 0.695116 -1.376141 -0.398557
v 0.701695 -1.748348 -0.402355
v 0.000000 0.175356 0.002769
v 0.113941 0.153201 -0.194582
v 0.128184 0.099396 -0.219251
v 0.308590 -0.223437 -0.531725
v 0.310173 -1.106480 -0.534466
v 0.401326 -1.376141 -0.692347
v 0.405124 -1.748348 -0.698926
v 0.000000 0.175356 0.002769
v -0.000000 0.153201 -0.225113
v 0.000000 0.099396 -0.253598
v 0.000000 -0.223437 -0.614411
v 0.000000 -1.106480 -0.617576
v -0.000000 -1.376141 -0.799882
v -0.000000 -1.748348 -0.807478
v 0.000000 0.175356 0.002769
v -0.113941 0.153201 -0.194582
v -0.128184 0.099396 -0.219251
v -0.308590 -0.223437 -0.531725
v -0.310173 -1.106480 -0.534466
v -0.401326 -1.376141 -0.692347
v -0.405124 -1.748348 -0.698925
v 0.000000 0.175356 0.002769
v -0.197352 0.153201 -0.111172
v -0.222021 0.099396 -0.125415
v -0.534494 -0.223437 -0.305821
v -0.537235 -1.106480 -0.307404
v -0.695116 -1.376141 -0.398556
v -0.701695 -1.748348 -0.402354
v 0.000000 0.175356 0.002769
v -0.227882 0.153201 0.002769
v -0.256367 0.099396 0.002769
v -0.617180 -0.223437 0.002769
v -0.620345 -1.106480 0.002769
v -0.802651 -1.376141 0.002769
v -0.810247 -1.748348 0.002769
v 0.000000 0.175356 0.002769
v -0.197352 0.153201 0.116710
v -0.222021 0.099396 0.130953
v -0.534494 -0.223437 0.311359
v -0.537235 -1.106480 0.312942
v -0.695116 -1.376141 0.404095
v -0.701694 -1.748348 0.407893
v 0.000000 0.175356 0.002769
v -0.113941 0.153201 0.200121
v -0.128184 0.099396 0.224790
v -0.308590 -0.223437 0.537263
v -0.310173 -1.106480 0.540004
v -0.401325 -1.376141 0.697885
v -0.405123 -1.748348 0.704464
v 0.000000 0.175356 0.002769
v 0.000000 0.153201 0.230651
v 0.000000 0.099396 0.259136
v 0.000000 -0.223437 0.619950
v 0.000000 -1.106480 0.623114
v 0.000000 -1.376141 0.805420
v 0.000000 -1.748348 0.813016
v 0.000000 0.175356 0.002769
v 0.113941 0.153201 0.200121
v 0.128184 0.099396 0.224790
v 0.308590 -0.223437 0.537263
v 0.310173 -1.106480 0.540004
v 0.401325 -1.376141 0.697885
v 0.405124 -1.748348 0.704463
v 0.000000 0.175356 0.002769
v 0.197352 0.153201 0.116710
v 0.222021 0.099396 0.130953
v 0.534494 -0.223437 0.311359
v 0.537235 -1.106480 0.312942
v 0.695116 -1.376141 0.404095
v 0.701695 -1.748348 0.407892
vn 0.6036 -0.7807 -0.1617
vn 0.3151 -0.9453 -0.0844
vn 0.0473 -0.9988 -0.0127
vn 0.8670 0.4408 -0.2323
vn 0.9563 0.1410 -0.2562
vn 0.9326 -0.2603 -0.2499
vn 0.8034 -0.5551 -0.2153
vn 0.0346 -0.9988 -0.0346
vn 0.6347 0.4408 -0.6347
vn 0.7000 0.1410 -0.7000
vn 0.6827 -0.2603 -0.6827
vn 0.5882 -0.5551 -0.5882
vn 0.4419 -0.7807 -0.4419
vn 0.2307 -0.9453 -0.2307
vn 0.2562 0.1410 -0.9563
vn 0.2499 -0.2603 -0.9326
vn 0.2153 -0.5551 -0.8034
vn 0.1617 -0.7807 -0.6036
vn 0.0844 -0.9453 -0.3151
vn 0.0127 -0.9988 -0.0473
vn 0.2323 0.4408 -0.8670
vn -0.1617 -0.7807 -0.6036
vn -0.0844 -0.9453 -0.3151
vn -0.0127 -0.9988 -0.0473
vn -0.2323 0.4408 -0.8670
vn -0.2562 0.1410 -0.9563
vn -0.2499 -0.2603 -0.9326
vn -0.2153 -0.5551 -0.8034
vn -0.0346 -0.9988 -0.0346
vn -0.6347 0.4408 -0.6347
vn -0.7000 0.1410 -0.7000
vn -0.6827 -0.2603 -0.6827
vn -0.5882 -0.5551 -0.5882
vn -0.4419 -0.7807 -0.4419
vn -0.2307 -0.9453 -0.2307
vn -0.9326 -0.2603 -0.2499
vn -0.8034 -0.5551 -0.2153
vn -0.6036 -0.7807 -0.1617
vn -0.3151 -0.9453 -0.0844
vn -0.0473 -0.9988 -0.0127
vn -0.8670 0.4408 -0.2323
vn -0.9563 0.1410 -0.2562
vn -0.6036 -0.7807 0.1617
vn -0.3151 -0.9453 0.0844
vn -0.0473 -0.9988 0.0127
vn -0.8670 0.4408 0.2323
vn -0.9563 0.1410 0.2562
vn -0.9326 -0.2603 0.2499
vn -0.8034 -0.5551 0.2153
vn -0.6347 0.4408 0.6347
vn -0.7000 0.1410 0.7000
vn -0.6827 -0.2603 0.6827
vn -0.5882 -0.5551 0.5882
vn -0.4419 -0.7807 0.4419
vn -0.2307 -0.9453 0.2307
vn -0.0346 -0.9988 0.0346
vn -0.2499 -0.2603 0.9326
vn -0.2153 -0.5551 0.8034
vn -0.1617 -0.7807 0.6036
vn -0.0844 -0.9453 0.3151
vn -0.0127 -0.9988 0.0473
vn -0.2323 0.4408 0.8670
vn -0.2562 0.1410 0.9563
vn 0.0844 -0.9453 0.3151
vn 0.0127 -0.9988 0.0473
vn 0.2323 0.4408 0.8670
vn 0.2562 0.1410 0.9563
vn 0.2499 -0.2603 0.9326
vn 0.2153 -0.5551 0.8034
vn 0.1617 -0.7807 0.6036
vn 0.6347 0.4408 0.6347
vn 0.7000 0.1410 0.7000
vn 0.6827 -0.2603 0.6827
vn 0.5882 -0.5551 0.5882
vn 0.4419 -0.7807 0.4419
vn 0.2307 -0.9453 0.2307
vn 0.0346 -0.9988 0.0346
vn 0.9326 -0.2603 0.2499
vn 0.8034 -0.5551 0.2153
vn 0.6036 -0.7807 0.1617
vn 0.3151 -0.9453 0.0844
vn 0.0473 -0.9988 0.0127
vn 0.8670 0.4408 0.2323
vn 0.9563 0.1410 0.2562
vn 0.9659 0.0035 -0.2588
vn 0.8088 0.5468 -0.2167
vn 0.9657 0.0197 -0.2588
vn 0.0967 0.9950 -0.0259
vn 0.8600 0.4553 -0.2304
vn 0.6564 0.7336 -0.1759
vn 0.7070 0.0197 -0.7070
vn 0.0708 0.9950 -0.0708
vn 0.6296 0.4553 -0.6296
vn 0.4805 0.7336 -0.4805
vn 0.7071 0.0035 -0.7071
vn 0.5921 0.5468 -0.5921
vn 0.0259 0.9950 -0.0967
vn 0.2304 0.4553 -0.8600
vn 0.1759 0.7336 -0.6564
vn 0.2588 0.0035 -0.9659
vn 0.2167 0.5468 -0.8088
vn 0.2588 0.0197 -0.9657
vn -0.1759 0.7336 -0.6564
vn -0.2588 0.0035 -0.9659
vn -0.2167 0.5468 -0.8088
vn -0.2588 0.0197 -0.9657
vn -0.0259 0.9950 -0.0967
vn -0.2304 0.4553 -0.8600
vn -0.7070 0.0197 -0.7070
vn -0.0708 0.9950 -0.0708
vn -0.6296 0.4553 -0.6296
vn -0.4805 0.7336 -0.4805
vn -0.7071 0.0035 -0.7071
vn -0.5921 0.5468 -0.5921
vn -0.0967 0.9950 -0.0259
vn -0.8600 0.4553 -0.2304
vn -0.6564 0.7336 -0.1759
vn -0.9659 0.0035 -0.2588
vn -0.8088 0.5468 -0.2167
vn -0.9657 0.0197 -0.2588
vn -0.9659 0.0035 0.2588
vn -0.8088 0.5468 0.2167
vn -0.9657 0.0197 0.2588
vn -0.0967 0.9950 0.0259
vn -0.8600 0.4553 0.2304
vn -0.6564 0.7336 0.1759
vn -0.7070 0.0197 0.7070
vn -0.0708 0.9950 0.0708
vn -0.6296 0.4553 0.6296
vn -0.4805 0.7336 0.4805
vn -0.7071 0.0035 0.7071
vn -0.5921 0.5468 0.5921
vn -0.2304 0.4553 0.8600
vn -0.1759 0.7336 0.6564
vn -0.2588 0.0035 0.9659
vn -0.2167 0.5468 0.8088
vn -0.2588 0.0197 0.9657
vn -0.0259 0.9950 0.0967
vn 0.2588 0.0035 0.9659
vn 0.2167 0.5468 0.8088
vn 0.2588 0.0197 0.9657
vn 0.0259 0.9950 0.0967
vn 0.2304 0.4553 0.8600
vn 0.1759 0.7336 0.6564
vn 0.0708 0.9950 0.0708
vn 0.6296 0.4553 0.6296
vn 0.4805 0.7336 0.4805
vn 0.7071 0.0035 0.7071
vn 0.5921 0.5468 0.5921
vn 0.7070 0.0197 0.7070
vn 0.8600 0.4553 0.2304
vn 0.6564 0.7336 0.1759
vn 0.9659 0.0035 0.2588
vn 0.8088 0.5468 0.2167
vn 0.9657 0.0197 0.2588
vn 0.0967 0.9950 0.0259
vt 0.000000 0.000000
s 0
usemtl Material.002
f 5/1/1 6/1/1 14/1/1 13/1/1
f 6/1/2 7/1/2 15/1/2 14/1/2
f 7/1/3 8/1/3 15/1/3
f 1/1/4 2/1/4 10/1/4 9/1/4
f 2/1/5 3/1/5 11/1/5 10/1/5
f 3/1/6 4/1/6 12/1/6 11/1/6
f 4/1/7 5/1/7 13/1/7 12/1/7
f 15/1/8 8/1/8 22/1/8
f 9/1/9 10/1/9 17/1/9 16/1/9
f 10/1/10 11/1/10 18/1/10 17/1/10
f 11/1/11 12/1/11 19/1/11 18/1/11
f 12/1/12 13/1/12 20/1/12 19/1/12
f 13/1/13 14/1/13 21/1/13 20/1/13
f 14/1/14 15/1/14 22/1/14 21/1/14
f 17/1/15 18/1/15 25/1/15 24/1/15
f 18/1/16 19/1/16 26/1/16 25/1/16
f 19/1/17 20/1/17 27/1/17 26/1/17
f 20/1/18 21/1/18 28/1/18 27/1/18
f 21/1/19 22/1/19 29/1/19 28/1/19
f 22/1/20 8/1/20 29/1/20
f 16/1/21 17/1/21 24/1/21 23/1/21
f 27/1/22 28/1/22 35/1/22 34/1/22
f 28/1/23 29/1/23 36/1/23 35/1/23
f 29/1/24 8/1/24 36/1/24
f 23/1/25 24/1/25 31/1/25 30/1/25
f 24/1/26 25/1/26 32/1/26 31/1/26
f 25/1/27 26/1/27 33/1/27 32/1/27
f 26/1/28 27/1/28 34/1/28 33/1/28
f 36/1/29 8/1/29 43/1/29
f 30/1/30 31/1/30 38/1/30 37/1/30
f 31/1/31 32/1/31 39/1/31 38/1/31
f 32/1/32 33/1/32 40/1/32 39/1/32
f 33/1/33 34/1/33 41/1/33 40/1/33
f 34/1/34 35/1/34 42/1/34 41/1/34
f 35/1/35 36/1/35 43/1/35 42/1/35
f 39/1/36 40/1/36 47/1/36 46/1/36
f 40/1/37 41/1/37 48/1/37 47/1/37
f 41/1/38 42/1/38 49/1/38 48/1/38
f 42/1/39 43/1/39 50/1/39 49/1/39
f 43/1/40 8/1/40 50/1/40
f 37/1/41 38/1/41 45/1/41 44/1/41
f 38/1/42 39/1/42 46/1/42 45/1/42
f 48/1/43 49/1/43 56/1/43 55/1/43
f 49/1/44 50/1/44 57/1/44 56/1/44
f 50/1/45 8/1/45 57/1/45
f 44/1/46 45/1/46 52/1/46 51/1/46
f 45/1/47 46/1/47 53/1/47 52/1/47
f 46/1/48 47/1/48 54/1/48 53/1/48
f 47/1/49 48/1/49 55/1/49 54/1/49
f 51/1/50 52/1/50 59/1/50 58/1/50
f 52/1/51 53/1/51 60/1/51 59/1/51
f 53/1/52 54/1/52 61/1/52 60/1/52
f 54/1/53 55/1/53 62/1/53 61/1/53
f 55/1/54 56/1/54 63/1/54 62/1/54
f 56/1/55 57/1/55 64/1/55 63/1/55
f 57/1/56 8/1/56 64/1/56
f 60/1/57 61/1/57 68/1/57 67/1/57
f 61/1/58 62/1/58 69/1/58 68/1/58
f 62/1/59 63/1/59 70/1/59 69/1/59
f 63/1/60 64/1/60 71/1/60 70/1/60
f 64/1/61 8/1/61 71/1/61
f 58/1/62 59/1/62 66/1/62 65/1/62
f 59/1/63 60/1/63 67/1/63 66/1/63
f 70/1/64 71/1/64 78/1/64 77/1/64
f 71/1/65 8/1/65 78/1/65
f 65/1/66 66/1/66 73/1/66 72/1/66
f 66/1/67 67/1/67 74/1/67 73/1/67
f 67/1/68 68/1/68 75/1/68 74/1/68
f 68/1/69 69/1/69 76/1/69 75/1/69
f 69/1/70 70/1/70 77/1/70 76/1/70
f 72/1/71 73/1/71 80/1/71 79/1/71
f 73/1/72 74/1/72 81/1/72 80/1/72
f 74/1/73 75/1/73 82/1/73 81/1/73
f 75/1/74 76/1/74 83/1/74 82/1/74
f 76/1/75 77/1/75 84/1/75 83/1/75
f 77/1/76 78/1/76 85/1/76 84/1/76
f 78/1/77 8/1/77 85/1/77
f 81/1/78 82/1/78 4/1/78 3/1/78
f 82/1/79 83/1/79 5/1/79 4/1/79
f 83/1/80 84/1/80 6/1/80 5/1/80
f 84/1/81 85/1/81 7/1/81 6/1/81
f 85/1/82 8/1/82 7/1/82
f 79/1/83 80/1/83 2/1/83 1/1/83
f 80/1/84 81/1/84 3/1/84 2/1/84
usemtl Material.001
f 89/1/85 90/1/85 97/1/85 96/1/85
f 90/1/86 91/1/86 98/1/86 97/1/86
f 91/1/87 92/1/87 99/1/87 98/1/87
f 86/1/88 87/1/88 94/1/88 93/1/88
f 87/1/89 88/1/89 95/1/89 94/1/89
f 88/1/90 89/1/90 96/1/90 95/1/90
f 98/1/91 99/1/91 106/1/91 105/1/91
f 93/1/92 94/1/92 101/1/92 100/1/92
f 94/1/93 95/1/93 102/1/93 101/1/93
f 95/1/94 96/1/94 103/1/94 102/1/94
f 96/1/95 97/1/95 104/1/95 103/1/95
f 97/1/96 98/1/96 105/1/96 104/1/96
f 100/1/97 101/1/97 108/1/97 107/1/97
f 101/1/98 102/1/98 109/1/98 108/1/98
f 102/1/99 103/1/99 110/1/99 109/1/99
f 103/1/100 104/1/100 111/1/100 110/1/100
f 104/1/101 105/1/101 112/1/101 111/1/101
f 105/1/102 106/1/102 113/1/102 112/1/102
f 109/1/103 110/1/103 117/1/103 116/1/103
f 110/1/104 111/1/104 118/1/104 117/1/104
f 111/1/105 112/1/105 119/1/105 118/1/105
f 112/1/106 113/1/106 120/1/106 119/1/106
f 107/1/107 108/1/107 115/1/107 114/1/107
f 108/1/108 109/1/108 116/1/108 115/1/108
f 119/1/109 120/1/109 127/1/109 126/1/109
f 114/1/110 115/1/110 122/1/110 121/1/110
f 115/1/111 116/1/111 123/1/111 122/1/111
f 116/1/112 117/1/112 124/1/112 123/1/112
f 117/1/113 118/1/113 125/1/113 124/1/113
f 118/1/114 119/1/114 126/1/114 125/1/114
f 121/1/115 122/1/115 129/1/115 128/1/115
f 122/1/116 123/1/116 130/1/116 129/1/116
f 123/1/117 124/1/117 131/1/117 130/1/117
f 124/1/118 125/1/118 132/1/118 131/1/118
f 125/1/119 126/1/119 133/1/119 132/1/119
f 126/1/120 127/1/120 134/1/120 133/1/120
f 131/1/121 132/1/121 139/1/121 138/1/121
f 132/1/122 133/1/122 140/1/122 139/1/122
f 133/1/123 134/1/123 141/1/123 140/1/123
f 128/1/124 129/1/124 136/1/124 135/1/124
f 129/1/125 130/1/125 137/1/125 136/1/125
f 130/1/126 131/1/126 138/1/126 137/1/126
f 140/1/127 141/1/127 148/1/127 147/1/127
f 135/1/128 136/1/128 143/1/128 142/1/128
f 136/1/129 137/1/129 144/1/129 143/1/129
f 137/1/130 138/1/130 145/1/130 144/1/130
f 138/1/131 139/1/131 146/1/131 145/1/131
f 139/1/132 140/1/132 147/1/132 146/1/132
f 143/1/133 144/1/133 151/1/133 150/1/133
f 144/1/134 145/1/134 152/1/134 151/1/134
f 145/1/135 146/1/135 153/1/135 152/1/135
f 146/1/136 147/1/136 154/1/136 153/1/136
f 147/1/137 148/1/137 155/1/137 154/1/137
f 142/1/138 143/1/138 150/1/138 149/1/138
f 152/1/139 153/1/139 160/1/139 159/1/139
f 153/1/140 154/1/140 161/1/140 160/1/140
f 154/1/141 155/1/141 162/1/141 161/1/141
f 149/1/142 150/1/142 157/1/142 156/1/142
f 150/1/143 151/1/143 158/1/143 157/1/143
f 151/1/144 152/1/144 159/1/144 158/1/144
f 156/1/145 157/1/145 164/1/145 163/1/145
f 157/1/146 158/1/146 165/1/146 164/1/146
f 158/1/147 159/1/147 166/1/147 165/1/147
f 159/1/148 160/1/148 167/1/148 166/1/148
f 160/1/149 161/1/149 168/1/149 167/1/149
f 161/1/150 162/1/150 169/1/150 168/1/150
f 164/1/151 165/1/151 88/1/151 87/1/151
f 165/1/152 166/1/152 89/1/152 88/1/152
f 166/1/153 167/1/153 90/1/153 89/1/153
f 167/1/154 168/1/154 91/1/154 90/1/154
f 168/1/155 169/1/155 92/1/155 91/1/155
f 163/1/156 164/1/156 87/1/156 86/1/156
